<?xml version="1.0" encoding="utf-8"?>
<!-- Generator: Adobe Illustrator 16.0.4, SVG Export Plug-In . SVG Version: 6.00 Build 0)  -->
<!DOCTYPE svg PUBLIC "-//W3C//DTD SVG 1.1//EN" "http://www.w3.org/Graphics/SVG/1.1/DTD/svg11.dtd">
<svg version="1.1" id="Layer_1" xmlns="http://www.w3.org/2000/svg" xmlns:xlink="http://www.w3.org/1999/xlink" x="0px" y="0px"
	 width="512px" height="512px" viewBox="0 0 512 512" enable-background="new 0 0 512 512" xml:space="preserve">
<path fill="#EBD9C8" d="M256,10.667c-141.44,0-256,112.64-256,251.562c0,111.168,73.344,205.44,175.04,238.678
	c12.8,2.368,17.493-5.419,17.493-12.096c0-5.974-0.214-21.803-0.32-42.773c-71.211,15.168-86.229-33.75-86.229-33.75
	c-11.647-29.034-28.479-36.8-28.479-36.8c-23.189-15.595,1.792-15.274,1.792-15.274c25.706,1.749,39.211,25.92,39.211,25.92
	c22.826,38.464,59.925,27.35,74.56,20.928c2.304-16.277,8.896-27.349,16.213-33.643c-56.853-6.293-116.607-27.925-116.607-124.31
	c0-27.456,9.92-49.898,26.347-67.498c-2.88-6.357-11.521-31.937,2.24-66.582c0,0,21.439-6.741,70.399,25.792
	c20.48-5.589,42.24-8.362,64-8.49c21.76,0.128,43.521,2.901,64,8.49c48.641-32.533,70.08-25.792,70.08-25.792
	c13.76,34.646,5.12,60.225,2.561,66.582c16.319,17.6,26.239,40.042,26.239,67.498c0,96.641-59.84,117.91-116.8,124.097
	c8.96,7.552,17.28,22.976,17.28,46.549c0,33.664-0.32,60.715-0.32,68.886c0,6.592,4.48,14.464,17.601,11.946
	C438.72,467.563,512,373.227,512,262.229C512,123.306,397.375,10.667,256,10.667z"/>
</svg>
