<?xml version="1.0" encoding="utf-8"?>
<!-- Generator: Adobe Illustrator 16.0.4, SVG Export Plug-In . SVG Version: 6.00 Build 0)  -->
<!DOCTYPE svg PUBLIC "-//W3C//DTD SVG 1.1//EN" "http://www.w3.org/Graphics/SVG/1.1/DTD/svg11.dtd">
<svg version="1.1" id="Capa_1" xmlns="http://www.w3.org/2000/svg" xmlns:xlink="http://www.w3.org/1999/xlink" x="0px" y="0px"
	 width="595.279px" height="409.256px" viewBox="0 0 595.279 409.256" enable-background="new 0 0 595.279 409.256"
	 xml:space="preserve">
<path fill="#EBD9C8" d="M394.594,207.679l200.684,126.869V75.453L394.594,207.679z"/>
<path fill="#EBD9C8" d="M-0.001,75.453v259.095l200.684-126.869L-0.001,75.453z"/>
<g>
	<g>
		<path fill="#EBD9C8" d="M558.074,0H37.203C18.638,0,3.904,13.841,1.114,31.66l296.522,195.363L594.161,31.66
			C591.372,13.841,576.638,0,558.074,0z"/>
	</g>
</g>
<g>
	<g>
		<path fill="#EBD9C8" d="M360.514,230.151l-52.645,34.677c-3.125,2.047-6.66,3.051-10.231,3.051c-3.569,0-7.104-1.004-10.229-3.051
			l-52.646-34.712L1.189,377.855c2.863,17.672,17.522,31.401,36.016,31.401h520.87c18.488,0,33.147-13.729,36.014-31.401
			L360.514,230.151z"/>
	</g>
</g>
</svg>
