<?xml version="1.0" encoding="utf-8"?>
<!-- Generator: Adobe Illustrator 16.0.4, SVG Export Plug-In . SVG Version: 6.00 Build 0)  -->
<!DOCTYPE svg PUBLIC "-//W3C//DTD SVG 1.1//EN" "http://www.w3.org/Graphics/SVG/1.1/DTD/svg11.dtd">
<svg version="1.1" id="Capa_1" xmlns="http://www.w3.org/2000/svg" xmlns:xlink="http://www.w3.org/1999/xlink" x="0px" y="0px"
	 width="375.126px" height="595.281px" viewBox="233.382 0 375.126 595.281" enable-background="new 233.382 0 375.126 595.281"
	 xml:space="preserve">
<g>
	<g>
		<path fill="#EBD9C8" d="M591.904,16.666v-0.062C581.336,5.982,566.974,0.007,551.991,0H289.835
			c-31.138,0.103-56.353,25.316-56.453,56.453v482.312c0.007,14.981,5.981,29.345,16.604,39.911
			c10.552,10.605,24.89,16.581,39.85,16.604h262.219c14.96-0.021,29.298-5.997,39.85-16.604
			c10.606-10.552,16.58-24.89,16.604-39.851V56.514C608.484,41.554,602.51,27.217,591.904,16.666z M420.945,556.969L420.945,556.969
			c-8.424,0-15.251-6.827-15.251-15.251s6.827-15.251,15.251-15.251s15.251,6.827,15.251,15.251S429.367,556.969,420.945,556.969z
			 M563.676,461.219c0,20.378-16.52,36.896-36.896,36.896H315.05c-20.378,0-36.897-16.52-36.897-36.896V101.776
			c0-20.379,16.521-36.897,36.897-36.897h211.79c20.379,0,36.897,16.52,36.897,36.897L563.676,461.219z"/>
	</g>
</g>
</svg>
